<svg id="svg" version="1.1" width="500" height="500" xmlns="http://www.w3.org/2000/svg" xmlns:xlink="http://www.w3.org/1999/xlink" style="display: block;"><g id="svgg"><path id="path0" d="M204.912 15.328 C 196.068 19.705,185.757 39.793,182.038 59.888 C 179.634 72.875,180.541 86.357,185.912 117.520 L 187.760 128.241 172.983 143.920 C 146.781 171.723,135.583 189.247,131.581 208.711 L 131.024 211.422 142.112 205.581 C 157.628 197.407,157.543 197.477,154.800 195.200 C 154.140 194.652,153.600 193.554,153.600 192.759 C 153.600 191.964,154.140 190.774,154.800 190.114 C 156.879 188.036,154.876 183.200,151.936 183.200 C 147.766 183.200,148.336 179.078,152.822 176.789 C 157.512 174.396,160.615 176.157,158.284 179.889 C 156.655 182.497,159.681 185.740,163.936 185.946 C 166.433 186.068,167.480 185.772,167.802 184.856 C 168.045 184.165,168.785 182.969,169.447 182.199 C 171.159 180.205,168.594 175.382,165.638 175.038 C 162.023 174.616,162.882 171.162,167.137 169.016 C 171.492 166.820,173.190 167.669,172.440 171.666 C 171.232 178.109,174.287 179.738,179.276 175.310 C 182.783 172.198,183.083 166.953,179.679 168.259 C 176.222 169.586,175.979 164.477,179.400 162.391 C 183.747 159.741,188.864 161.856,185.717 165.003 C 183.221 167.499,186.483 169.032,189.074 166.581 C 190.463 165.267,192.378 163.793,193.328 163.306 C 194.279 162.819,195.511 161.394,196.066 160.141 C 196.621 158.887,197.812 157.532,198.712 157.130 C 202.651 155.372,216.568 137.234,221.369 127.600 C 243.785 82.625,231.958 1.940,204.912 15.328 M219.674 46.122 C 227.780 51.433,227.335 72.769,218.776 89.190 C 211.962 102.264,194.460 123.527,192.295 121.362 C 189.650 118.717,189.126 90.699,191.515 79.600 C 196.562 56.150,210.212 39.922,219.674 46.122 M197.291 163.023 C 195.545 166.400,195.648 169.355,197.547 170.372 C 200.540 171.974,200.983 171.447,200.386 167.000 C 199.565 160.893,198.861 159.988,197.291 163.023 M201.150 185.841 C 200.805 186.741,211.815 208.021,213.584 209.874 C 213.939 210.245,215.045 210.111,216.044 209.576 L 217.860 208.605 215.382 207.563 C 211.340 205.863,208.815 198.705,211.360 196.160 C 212.107 195.413,211.669 195.200,209.391 195.200 C 206.254 195.200,206.346 195.354,204.465 187.000 C 203.954 184.731,201.857 183.998,201.150 185.841 M214.045 196.978 C 210.153 202.535,217.304 208.368,222.113 203.560 C 224.206 201.467,224.254 198.634,222.238 196.204 C 220.788 194.457,215.459 194.960,214.045 196.978 M226.030 198.600 C 226.752 201.972,226.551 201.884,229.901 200.286 C 233.341 198.646,233.465 198.160,230.762 196.928 C 226.858 195.149,225.401 195.664,226.030 198.600 M192.800 202.423 C 192.800 204.311,197.718 212.800,198.812 212.800 C 200.452 212.800,200.379 212.538,197.131 206.730 C 194.505 202.034,192.800 200.339,192.800 202.423 M180.319 212.322 C 179.852 213.538,182.622 219.549,184.058 220.436 C 186.254 221.793,186.448 219.241,184.449 215.297 C 182.354 211.161,181.109 210.265,180.319 212.322 M139.200 217.561 L 130.800 222.213 130.561 225.797 C 129.886 235.895,136.158 259.405,137.988 253.639 C 138.260 252.780,139.919 251.021,141.674 249.731 L 144.865 247.384 145.132 235.892 C 145.375 225.448,145.827 222.440,148.333 214.600 C 149.116 212.148,148.779 212.257,139.200 217.561 M247.600 216.936 C 243.787 218.920,243.601 219.068,244.187 219.654 C 244.655 220.122,252.800 216.276,252.800 215.587 C 252.800 214.781,250.687 215.330,247.600 216.936 M200.800 217.933 C 200.800 218.630,201.370 219.200,202.067 219.200 C 203.479 219.200,203.233 217.478,201.750 216.983 C 201.228 216.809,200.800 217.237,200.800 217.933 M250.109 219.699 C 247.969 220.812,246.060 222.326,245.868 223.062 C 244.881 226.837,239.200 226.440,239.200 222.596 C 239.200 221.779,238.392 221.952,236.046 223.270 L 232.892 225.043 235.579 228.322 C 250.194 246.158,246.979 274.612,229.100 285.662 C 225.303 288.008,225.332 288.069,221.967 270.620 C 220.289 261.919,218.661 254.499,218.350 254.132 C 217.193 252.766,212.755 255.925,213.163 257.825 C 213.372 258.801,214.298 263.740,215.222 268.800 C 216.145 273.860,217.392 280.467,217.993 283.483 C 219.396 290.521,219.250 290.792,213.352 292.101 C 193.489 296.510,168.898 288.505,157.170 273.812 C 155.496 271.715,153.891 269.720,153.602 269.379 C 153.000 268.665,144.800 270.251,144.800 271.081 C 144.800 272.322,152.886 281.311,157.280 284.954 C 171.406 296.667,190.540 301.024,216.332 298.400 C 221.051 297.920,220.517 296.620,223.947 316.908 C 229.995 352.674,229.094 362.194,218.733 371.992 C 207.745 382.384,188.939 383.379,182.452 373.912 C 180.151 370.554,180.681 369.109,184.601 368.054 C 202.269 363.296,201.264 336.749,183.271 332.890 C 169.581 329.954,158.965 340.370,158.903 356.800 C 158.802 383.098,205.852 397.401,225.027 376.902 C 236.439 364.702,237.332 353.026,229.972 312.231 C 228.448 303.778,227.200 296.506,227.200 296.071 C 227.200 295.637,230.141 293.751,233.736 291.881 C 257.977 279.269,268.268 247.699,256.510 222.015 C 255.398 219.587,254.379 217.617,254.244 217.637 C 254.110 217.658,252.249 218.585,250.109 219.699 M171.686 228.465 C 170.431 231.734,171.092 233.615,173.163 232.671 C 175.033 231.819,175.070 231.669,173.942 229.488 C 172.576 226.846,172.347 226.742,171.686 228.465 M209.347 232.519 C 208.698 233.168,212.630 240.800,213.613 240.800 C 214.795 240.800,214.572 239.474,212.811 236.022 C 211.139 232.745,210.136 231.730,209.347 232.519 M173.400 243.330 C 172.045 243.825,171.200 244.722,171.200 245.667 C 171.200 247.599,171.588 247.585,174.906 245.535 C 179.176 242.895,178.261 241.555,173.400 243.330 M179.407 254.137 L 175.215 256.178 176.607 258.581 C 179.525 263.616,194.639 275.200,198.291 275.200 C 198.915 275.200,197.766 273.433,195.722 271.248 C 191.036 266.238,187.608 260.843,185.961 255.884 C 184.471 251.397,184.838 251.494,179.407 254.137 M145.659 258.729 C 145.019 259.500,144.988 260.022,145.561 260.376 C 146.678 261.066,148.000 260.187,148.000 258.753 C 148.000 257.284,146.868 257.272,145.659 258.729 " stroke="none" fill="#000000" fill-rule="evenodd"></path><path id="path1" d="M204.682 14.412 C 197.155 18.389,182.823 43.089,183.255 51.341 C 183.286 51.923,184.350 49.340,185.621 45.600 C 193.903 21.222,207.076 8.426,216.632 15.476 C 233.980 28.275,238.816 81.817,225.819 117.200 C 220.608 131.384,205.051 154.301,198.712 157.130 C 197.812 157.532,196.621 158.887,196.066 160.141 C 195.511 161.394,194.279 162.819,193.328 163.306 C 192.378 163.793,190.463 165.267,189.074 166.581 C 186.483 169.032,183.221 167.499,185.717 165.003 C 186.701 164.019,185.883 160.800,184.648 160.800 C 184.134 160.800,184.204 161.282,184.828 162.034 C 185.604 162.969,185.628 163.492,184.926 164.194 C 181.512 167.608,185.623 170.492,189.482 167.391 C 193.541 164.129,195.200 164.038,195.200 167.076 C 195.200 169.715,197.364 172.000,199.863 172.000 C 201.971 172.000,202.112 169.884,200.470 162.903 L 199.365 158.206 204.934 152.200 C 225.067 130.486,233.858 106.264,233.894 72.400 C 233.937 32.244,220.693 5.953,204.682 14.412 M210.580 46.128 C 196.182 53.225,186.654 85.048,190.661 112.663 C 191.320 117.208,192.056 121.123,192.295 121.362 C 195.540 124.607,220.649 90.145,222.766 79.542 C 223.301 76.859,223.694 76.135,218.765 86.925 C 213.868 97.646,194.962 122.429,193.101 120.567 C 189.087 116.554,190.148 85.130,194.775 70.955 C 206.101 36.257,229.000 38.028,223.810 73.200 C 223.313 76.566,223.367 76.883,224.149 75.200 C 225.941 71.342,225.457 54.481,223.446 50.722 C 220.394 45.019,216.007 43.453,210.580 46.128 M182.180 54.406 C 181.910 55.503,181.494 58.380,181.255 60.800 C 180.839 65.017,180.870 64.967,182.004 59.600 C 183.110 54.361,183.257 50.030,182.180 54.406 M180.313 76.000 C 180.313 81.940,180.439 84.370,180.593 81.400 C 180.747 78.430,180.747 73.570,180.593 70.600 C 180.439 67.630,180.313 70.060,180.313 76.000 M181.266 92.000 C 181.493 94.860,182.741 103.601,184.039 111.424 C 185.338 119.247,186.400 126.361,186.400 127.234 C 186.400 128.184,182.144 133.230,175.792 139.810 C 148.788 167.784,137.179 184.604,132.051 203.184 C 129.077 213.961,128.683 213.868,143.473 205.890 C 158.097 198.001,158.034 198.056,155.905 195.066 C 154.256 192.750,154.291 192.060,156.195 189.391 C 157.391 187.714,154.661 181.834,152.869 182.228 C 151.022 182.634,149.444 180.752,150.532 179.441 C 153.653 175.681,159.701 175.538,157.364 179.280 C 155.769 181.835,158.921 186.854,161.979 186.629 C 163.258 186.534,164.776 186.848,165.352 187.326 C 166.619 188.377,168.800 186.883,168.800 184.965 C 168.800 184.284,169.419 183.042,170.176 182.206 C 171.974 180.219,169.547 175.126,166.459 174.408 C 162.583 173.505,165.644 168.800,170.108 168.800 C 172.067 168.800,172.854 171.378,171.206 172.396 C 170.091 173.085,173.334 179.200,174.814 179.200 C 175.867 179.200,181.947 174.385,183.342 172.447 C 184.389 170.991,181.672 167.200,179.579 167.200 C 176.400 167.200,177.013 164.348,180.600 162.454 C 182.250 161.583,183.240 160.856,182.800 160.838 C 181.091 160.769,176.800 164.051,176.800 165.428 C 176.800 167.313,178.300 168.788,179.679 168.259 C 183.083 166.953,182.783 172.198,179.276 175.310 C 174.287 179.738,171.232 178.109,172.440 171.666 C 173.190 167.669,171.492 166.820,167.137 169.016 C 162.882 171.162,162.023 174.616,165.638 175.038 C 168.594 175.382,171.159 180.205,169.447 182.199 C 168.785 182.969,168.045 184.165,167.802 184.856 C 167.480 185.772,166.433 186.068,163.936 185.946 C 159.681 185.740,156.655 182.497,158.284 179.889 C 160.615 176.157,157.512 174.396,152.822 176.789 C 148.336 179.078,147.766 183.200,151.936 183.200 C 154.876 183.200,156.879 188.036,154.800 190.114 C 154.140 190.774,153.600 191.964,153.600 192.759 C 153.600 193.554,154.140 194.652,154.800 195.200 C 157.543 197.477,157.628 197.407,142.112 205.581 L 131.024 211.422 131.581 208.711 C 135.583 189.247,146.781 171.723,172.984 143.920 L 187.762 128.240 185.845 117.120 C 184.791 111.004,183.237 101.680,182.391 96.400 C 181.464 90.608,181.017 88.863,181.266 92.000 M200.386 167.000 C 200.983 171.447,200.540 171.974,197.547 170.372 C 195.648 169.355,195.545 166.400,197.291 163.023 C 198.861 159.988,199.565 160.893,200.386 167.000 M196.000 174.400 C 196.000 175.449,196.388 175.801,197.200 175.489 C 197.860 175.236,198.400 174.746,198.400 174.400 C 198.400 174.054,197.860 173.564,197.200 173.311 C 196.388 172.999,196.000 173.351,196.000 174.400 M201.800 184.176 C 200.810 184.654,200.000 185.488,200.000 186.030 C 200.000 188.032,212.988 211.200,214.110 211.200 C 215.813 211.200,219.268 208.866,222.144 205.772 C 223.543 204.267,225.057 203.265,225.510 203.544 C 226.408 204.100,235.200 199.442,235.200 198.410 C 235.200 196.556,227.984 194.931,218.400 194.629 C 206.205 194.243,206.720 194.409,206.074 190.664 C 204.644 182.374,204.859 182.701,201.800 184.176 M204.465 187.000 C 206.346 195.354,206.254 195.200,209.391 195.200 C 211.669 195.200,212.107 195.413,211.360 196.160 C 208.815 198.705,211.340 205.863,215.382 207.563 L 217.860 208.605 216.044 209.576 C 215.045 210.111,213.939 210.245,213.584 209.874 C 211.815 208.021,200.805 186.741,201.150 185.841 C 201.857 183.998,203.954 184.731,204.465 187.000 M222.238 196.204 C 224.254 198.634,224.206 201.467,222.113 203.560 C 217.304 208.368,210.153 202.535,214.045 196.978 C 215.459 194.960,220.788 194.457,222.238 196.204 M230.762 196.928 C 233.465 198.160,233.341 198.646,229.901 200.286 C 226.551 201.884,226.752 201.972,226.030 198.600 C 225.401 195.664,226.858 195.149,230.762 196.928 M192.441 201.071 C 191.050 202.088,191.125 202.424,193.956 207.811 C 197.087 213.769,198.488 215.022,199.993 213.208 C 200.738 212.310,195.228 200.000,194.081 200.000 C 193.984 200.000,193.247 200.482,192.441 201.071 M197.131 206.730 C 200.379 212.538,200.452 212.800,198.812 212.800 C 197.718 212.800,192.800 204.311,192.800 202.423 C 192.800 200.339,194.505 202.034,197.131 206.730 M231.211 210.803 C 219.327 217.260,216.655 219.200,219.645 219.200 C 221.288 219.200,244.289 207.222,243.726 206.659 C 243.512 206.445,242.496 206.679,241.469 207.179 C 239.684 208.047,239.670 208.032,241.158 206.840 C 242.039 206.135,243.384 205.804,244.253 206.080 C 245.299 206.412,245.679 206.238,245.445 205.534 C 244.806 203.619,243.638 204.052,231.211 210.803 M180.063 211.483 C 178.602 214.213,182.397 221.827,185.031 221.451 C 187.663 221.074,187.595 218.885,184.800 214.000 C 181.974 209.061,181.495 208.807,180.063 211.483 M139.400 216.595 L 129.600 221.957 129.600 226.474 C 129.600 239.800,135.769 260.776,138.075 255.291 C 138.630 253.973,140.601 251.795,142.457 250.450 L 145.832 248.006 146.018 236.203 C 146.195 224.974,147.156 219.240,149.977 212.600 C 150.883 210.467,149.971 210.811,139.400 216.595 M184.449 215.297 C 186.448 219.241,186.254 221.793,184.058 220.436 C 182.622 219.549,179.852 213.538,180.319 212.322 C 181.109 210.265,182.354 211.161,184.449 215.297 M148.333 214.600 C 145.827 222.440,145.375 225.448,145.132 235.892 L 144.865 247.384 141.674 249.731 C 139.919 251.021,138.260 252.780,137.988 253.639 C 136.158 259.405,129.886 235.895,130.561 225.797 L 130.800 222.213 139.200 217.561 C 148.779 212.257,149.116 212.148,148.333 214.600 M242.190 219.063 C 230.743 225.072,231.013 224.714,234.772 228.874 C 247.688 243.171,247.046 267.446,233.393 281.000 C 226.192 288.149,225.768 287.713,222.695 270.000 C 222.390 268.240,221.993 267.236,221.814 267.769 C 221.386 269.040,224.749 285.793,225.615 286.701 C 227.286 288.456,237.552 279.171,240.638 273.114 C 247.764 259.122,245.678 240.646,235.579 228.322 L 232.892 225.043 236.046 223.270 C 238.392 221.952,239.200 221.779,239.200 222.596 C 239.200 226.442,244.881 226.837,245.869 223.060 C 246.061 222.322,248.074 220.779,250.341 219.630 L 254.462 217.542 256.506 222.007 C 257.631 224.463,259.238 229.606,260.078 233.436 C 261.407 239.496,261.544 239.794,261.137 235.734 C 260.483 229.218,255.967 216.800,254.252 216.800 C 253.893 216.800,253.600 216.281,253.600 215.647 C 253.600 213.384,252.228 213.795,242.190 219.063 M252.800 215.587 C 252.800 216.276,244.655 220.122,244.187 219.654 C 243.601 219.068,243.787 218.920,247.600 216.936 C 250.687 215.330,252.800 214.781,252.800 215.587 M200.289 217.200 C 199.458 219.367,200.624 220.962,202.596 220.356 C 205.036 219.606,205.055 219.571,204.037 217.669 C 202.997 215.725,200.953 215.470,200.289 217.200 M203.017 218.250 C 203.191 218.773,202.763 219.200,202.067 219.200 C 201.370 219.200,200.800 218.630,200.800 217.933 C 200.800 216.521,202.522 216.767,203.017 218.250 M244.850 222.306 C 243.411 224.994,240.000 225.350,240.000 222.811 C 240.000 221.731,241.448 221.073,244.228 220.893 C 245.386 220.818,245.504 221.085,244.850 222.306 M205.630 224.000 C 205.623 226.545,206.760 228.367,207.911 227.655 C 209.129 226.902,209.016 226.321,207.200 224.000 L 205.636 222.000 205.630 224.000 M171.333 227.000 C 170.213 229.170,169.443 234.400,170.244 234.400 C 175.100 234.400,176.569 232.255,174.321 228.446 C 172.386 225.167,172.301 225.126,171.333 227.000 M173.942 229.488 C 175.070 231.669,175.033 231.819,173.163 232.671 C 171.092 233.615,170.431 231.734,171.686 228.465 C 172.347 226.742,172.576 226.846,173.942 229.488 M208.320 232.319 C 207.594 234.213,211.806 241.600,213.613 241.600 C 215.838 241.600,215.657 239.065,213.124 234.742 C 211.043 231.192,209.124 230.224,208.320 232.319 M212.811 236.022 C 214.572 239.474,214.795 240.800,213.613 240.800 C 212.630 240.800,208.698 233.168,209.347 232.519 C 210.136 231.730,211.139 232.745,212.811 236.022 M172.800 242.632 C 170.756 243.662,169.699 246.819,170.972 248.092 C 171.992 249.112,178.400 244.738,178.400 243.021 C 178.400 241.321,175.763 241.138,172.800 242.632 M177.600 243.135 C 177.600 243.844,172.734 247.200,171.706 247.200 C 170.103 247.200,171.493 244.026,173.400 243.330 C 176.260 242.285,177.600 242.223,177.600 243.135 M261.802 245.200 C 261.811 246.960,261.974 247.586,262.166 246.591 C 262.357 245.596,262.350 244.156,262.150 243.391 C 261.949 242.626,261.793 243.440,261.802 245.200 M215.712 244.555 C 214.740 245.527,215.205 247.146,216.682 247.937 C 217.971 248.627,218.116 248.472,217.787 246.753 C 217.380 244.627,216.535 243.732,215.712 244.555 M180.231 252.675 C 173.697 256.034,173.669 256.126,177.678 261.033 C 181.904 266.204,186.364 269.903,192.582 273.390 C 201.172 278.209,202.219 276.576,195.290 269.168 C 190.659 264.218,186.833 257.567,185.883 252.813 C 185.311 249.956,185.508 249.961,180.231 252.675 M260.235 255.596 C 259.712 258.651,259.413 261.280,259.572 261.439 C 260.047 261.914,261.737 252.901,261.451 251.416 C 261.305 250.661,260.758 252.542,260.235 255.596 M185.961 255.884 C 187.608 260.843,191.036 266.238,195.722 271.248 C 197.766 273.433,198.915 275.200,198.291 275.200 C 194.639 275.200,179.525 263.616,176.607 258.581 L 175.215 256.178 179.407 254.137 C 184.838 251.494,184.471 251.397,185.961 255.884 M214.986 254.029 C 211.738 256.236,211.619 256.834,213.242 262.800 L 214.330 266.800 213.919 262.800 C 213.694 260.600,213.331 258.189,213.114 257.442 C 212.681 255.955,217.026 253.151,218.423 254.015 C 218.851 254.278,219.200 253.933,219.200 253.247 C 219.200 251.534,218.454 251.672,214.986 254.029 M219.372 257.200 C 219.362 258.080,219.816 260.600,220.382 262.800 C 220.947 265.000,221.418 266.080,221.428 265.200 C 221.438 264.320,220.984 261.800,220.418 259.600 C 219.853 257.400,219.382 256.320,219.372 257.200 M144.808 257.990 C 143.513 259.551,144.346 261.600,146.277 261.600 C 148.261 261.600,149.763 259.756,149.128 258.101 C 148.504 256.474,146.117 256.413,144.808 257.990 M148.000 258.753 C 148.000 260.187,146.678 261.066,145.561 260.376 C 144.988 260.022,145.019 259.500,145.659 258.729 C 146.868 257.272,148.000 257.284,148.000 258.753 M255.321 269.837 C 250.786 279.252,243.283 286.913,233.736 291.881 C 230.141 293.751,227.200 295.637,227.200 296.071 C 227.200 296.506,228.448 303.778,229.972 312.231 C 237.332 353.026,236.439 364.702,225.027 376.902 C 209.761 393.223,173.268 387.877,161.530 367.600 C 158.916 363.083,158.393 363.281,160.748 367.897 C 171.110 388.209,209.551 394.085,225.420 377.782 C 236.984 365.902,238.200 352.447,231.175 314.065 C 227.518 294.080,227.221 296.198,234.176 292.716 C 244.171 287.711,260.871 267.932,259.049 263.256 C 258.912 262.904,257.235 265.866,255.321 269.837 M214.503 268.800 C 214.483 269.900,214.985 272.780,215.617 275.200 L 216.767 279.600 216.302 275.355 C 216.047 273.020,215.545 270.140,215.187 268.955 L 214.538 266.800 214.503 268.800 M147.400 268.933 C 143.202 269.873,143.156 270.790,147.064 275.728 C 155.666 286.597,174.729 298.596,183.023 298.361 C 183.780 298.340,181.520 297.333,178.000 296.123 C 164.528 291.496,144.800 276.615,144.800 271.081 C 144.800 270.251,153.000 268.665,153.602 269.379 C 153.891 269.720,155.496 271.715,157.170 273.812 C 168.898 288.505,193.489 296.510,213.352 292.101 C 219.157 290.812,219.281 290.613,218.157 284.373 C 217.684 281.748,217.170 280.171,217.015 280.869 C 216.860 281.567,217.086 283.708,217.517 285.626 C 218.499 289.999,218.477 290.028,213.402 291.254 C 193.437 296.077,163.284 285.106,155.251 270.094 C 154.043 267.838,152.988 267.681,147.400 268.933 M218.151 298.118 C 219.114 298.327,220.083 299.106,220.305 299.849 C 220.595 300.821,220.663 300.751,220.546 299.600 C 220.436 298.514,219.744 297.958,218.392 297.869 C 216.722 297.759,216.683 297.799,218.151 298.118 M186.845 299.305 C 188.140 299.583,194.240 299.811,200.400 299.811 C 206.560 299.811,212.660 299.583,213.955 299.305 C 215.250 299.027,209.150 298.800,200.400 298.800 C 191.650 298.800,185.550 299.027,186.845 299.305 M220.919 302.800 C 220.895 303.680,221.355 306.740,221.942 309.600 C 222.529 312.460,223.036 313.900,223.070 312.800 C 223.103 311.700,222.643 308.640,222.047 306.000 C 221.451 303.360,220.944 301.920,220.919 302.800 M223.200 316.562 C 223.200 317.458,223.715 321.208,224.345 324.895 C 230.279 359.641,225.186 373.441,204.400 378.940 C 200.535 379.962,200.513 379.985,203.729 379.601 C 212.309 378.577,221.293 371.654,225.301 362.978 C 228.273 356.543,228.396 344.721,225.674 327.203 C 223.965 316.207,223.200 312.915,223.200 316.562 M172.977 332.331 C 166.556 334.420,159.152 342.652,159.245 347.600 C 159.261 348.480,159.966 347.429,160.811 345.265 C 168.523 325.515,197.626 329.897,197.575 350.800 C 197.556 358.354,191.700 366.142,184.601 368.054 C 177.615 369.935,182.879 378.181,192.000 379.643 C 194.085 379.977,193.679 379.686,190.407 378.503 C 182.553 375.664,179.455 370.496,184.671 368.933 C 192.579 366.564,198.400 358.850,198.400 350.741 C 198.400 337.806,185.303 328.322,172.977 332.331 M158.586 352.000 C 158.586 353.540,158.750 354.170,158.951 353.400 C 159.153 352.630,159.153 351.370,158.951 350.600 C 158.750 349.830,158.586 350.460,158.586 352.000 M157.680 357.267 C 157.724 358.550,158.065 360.500,158.439 361.600 C 158.898 362.949,158.969 362.298,158.657 359.600 C 158.137 355.100,157.558 353.718,157.680 357.267 " stroke="none" fill="#494949" fill-rule="evenodd"></path><path id="path2" d="M204.400 13.471 C 195.546 18.874,180.230 46.482,181.772 54.262 C 181.917 54.998,182.866 52.475,183.879 48.656 C 187.705 34.231,197.587 18.080,204.854 14.372 C 218.130 7.599,229.581 24.514,233.576 56.800 L 234.318 62.800 233.922 55.855 C 232.280 27.087,217.309 5.593,204.400 13.471 M209.110 48.200 C 203.322 52.088,193.383 68.550,194.607 72.221 C 194.773 72.719,195.546 71.179,196.325 68.798 C 203.018 48.334,217.671 39.815,222.435 53.617 C 223.303 56.132,223.959 57.222,223.974 56.174 C 224.098 47.496,216.348 43.338,209.110 48.200 M180.260 59.727 C 179.329 65.191,179.632 90.880,180.679 95.200 L 181.551 98.800 181.158 94.800 C 180.037 83.382,179.854 69.340,180.746 63.238 C 181.776 56.195,181.366 53.235,180.260 59.727 M224.263 63.600 C 224.266 66.680,224.411 67.842,224.584 66.182 C 224.757 64.522,224.754 62.002,224.577 60.582 C 224.401 59.162,224.259 60.520,224.263 63.600 M234.703 72.000 C 234.703 77.060,234.832 79.130,234.991 76.600 C 235.150 74.070,235.150 69.930,234.991 67.400 C 234.832 64.870,234.703 66.940,234.703 72.000 M222.903 72.600 C 222.627 74.250,222.196 76.500,221.945 77.600 C 221.608 79.082,221.692 79.289,222.269 78.400 C 223.122 77.085,224.419 69.600,223.793 69.600 C 223.579 69.600,223.179 70.950,222.903 72.600 M192.768 77.829 C 192.233 80.223,191.963 82.681,192.170 83.291 C 192.377 83.901,192.957 82.084,193.459 79.253 C 194.586 72.900,194.097 71.893,192.768 77.829 M219.691 83.474 C 215.477 94.507,194.343 122.286,193.311 118.148 C 192.016 112.951,191.073 100.158,191.444 92.800 C 191.732 87.067,191.653 85.543,191.193 88.000 C 189.283 98.199,191.589 122.138,194.318 120.451 C 200.267 116.774,223.486 82.419,221.419 80.352 C 221.205 80.139,220.428 81.544,219.691 83.474 M233.597 85.000 C 233.577 106.339,221.756 134.058,204.942 152.191 C 200.037 157.481,199.440 158.460,199.878 160.494 L 200.374 162.800 200.656 160.437 C 200.829 158.981,202.455 156.414,204.887 153.753 C 219.009 138.301,227.856 121.546,232.066 102.282 C 233.666 94.961,234.992 81.600,234.118 81.600 C 233.833 81.600,233.599 83.130,233.597 85.000 M182.097 103.600 C 182.327 106.240,182.813 109.660,183.176 111.200 C 184.333 116.105,184.020 110.596,182.790 104.400 L 181.678 98.800 182.097 103.600 M184.095 115.446 C 184.043 116.241,184.410 119.377,184.912 122.414 L 185.824 127.936 173.864 140.568 C 145.043 171.010,134.401 187.344,130.055 207.812 C 128.856 213.456,129.302 214.209,132.777 212.412 C 135.694 210.904,136.027 210.057,133.197 211.347 C 130.112 212.753,129.895 211.656,131.802 204.281 C 136.726 185.234,148.257 168.335,175.792 139.810 C 184.299 130.997,186.393 128.383,186.363 126.610 C 186.315 123.805,184.223 113.505,184.095 115.446 M182.400 161.704 C 181.385 162.420,181.412 162.483,182.574 162.110 C 184.268 161.568,185.304 163.016,184.090 164.230 C 183.601 164.719,183.200 165.488,183.200 165.938 C 183.200 166.388,183.784 165.923,184.497 164.904 C 186.104 162.611,184.526 160.204,182.400 161.704 M179.000 163.264 C 178.230 163.713,177.642 164.872,177.693 165.840 C 177.777 167.444,177.821 167.460,178.186 166.020 C 178.406 165.151,179.175 163.992,179.893 163.445 C 181.472 162.244,180.938 162.135,179.000 163.264 M201.360 167.200 C 201.863 172.046,202.027 172.566,202.568 171.035 C 202.769 170.466,202.477 168.380,201.919 166.400 L 200.903 162.800 201.360 167.200 M189.613 167.247 C 188.081 168.556,186.352 169.446,185.772 169.223 C 185.192 169.001,184.937 169.174,185.206 169.609 C 186.063 170.996,187.636 170.468,190.000 168.000 C 191.265 166.680,192.564 165.600,192.888 165.600 C 193.817 165.600,195.295 170.821,194.760 172.215 C 193.885 174.496,195.818 176.954,197.696 175.949 C 198.623 175.453,199.136 174.587,198.887 173.939 C 198.619 173.240,198.956 172.800,199.758 172.800 C 200.478 172.800,200.854 172.587,200.594 172.327 C 200.333 172.067,199.326 172.106,198.355 172.414 C 196.969 172.854,196.827 173.129,197.694 173.687 C 198.624 174.286,198.609 174.524,197.600 175.179 C 196.100 176.153,195.434 174.045,196.744 172.468 C 197.393 171.685,197.307 171.153,196.410 170.408 C 195.744 169.856,195.200 168.368,195.200 167.102 C 195.200 164.064,193.279 164.114,189.613 167.247 M180.530 167.199 C 181.481 167.583,182.504 168.667,182.803 169.608 C 183.102 170.550,183.542 171.125,183.781 170.885 C 184.579 170.088,181.584 166.399,180.182 166.451 C 179.108 166.490,179.185 166.657,180.530 167.199 M166.070 170.488 C 163.582 172.445,163.713 173.768,166.459 174.408 C 169.639 175.148,171.975 180.218,170.094 182.297 C 169.292 183.183,168.824 184.378,169.055 184.954 C 169.377 185.759,169.488 185.739,169.537 184.863 C 169.572 184.238,170.172 183.093,170.872 182.320 C 172.939 180.037,169.595 173.600,166.342 173.600 C 164.015 173.600,164.487 172.167,167.400 170.391 C 168.830 169.519,169.599 168.805,169.108 168.803 C 168.617 168.801,167.250 169.559,166.070 170.488 M170.800 170.724 C 170.800 171.782,171.070 172.480,171.400 172.276 C 171.730 172.072,172.000 171.207,172.000 170.353 C 172.000 169.499,171.730 168.800,171.400 168.800 C 171.070 168.800,170.800 169.666,170.800 170.724 M180.400 175.394 C 177.623 178.181,177.527 178.386,179.671 176.940 C 182.327 175.150,184.424 172.942,183.914 172.472 C 183.741 172.313,182.160 173.628,180.400 175.394 M156.069 180.447 C 156.031 181.353,156.567 182.793,157.259 183.647 C 157.952 184.501,158.273 184.722,157.973 184.137 C 157.673 183.553,157.138 182.113,156.783 180.937 C 156.265 179.222,156.124 179.125,156.069 180.447 M201.968 183.633 C 200.465 184.836,200.478 184.850,202.269 183.979 C 204.658 182.817,204.676 182.843,205.716 188.749 C 206.753 194.635,205.888 194.233,218.400 194.629 C 227.984 194.931,235.200 196.556,235.200 198.410 C 235.200 199.411,226.422 204.108,225.555 203.572 C 225.128 203.308,223.418 204.466,221.756 206.146 C 220.094 207.826,218.029 209.669,217.167 210.243 C 216.305 210.817,217.220 210.411,219.200 209.341 C 221.180 208.272,225.968 205.690,229.840 203.604 C 238.378 199.004,238.524 197.995,231.018 195.420 C 226.921 194.015,223.512 193.524,216.653 193.351 L 207.660 193.125 206.430 188.021 C 205.089 182.458,204.347 181.728,201.968 183.633 M164.347 187.634 C 166.809 188.918,168.800 188.691,168.800 187.127 C 168.800 186.473,168.440 186.503,167.566 187.228 C 166.631 188.004,166.108 188.028,165.406 187.326 C 164.897 186.817,163.922 186.402,163.240 186.405 C 162.558 186.408,163.056 186.961,164.347 187.634 M156.563 188.421 C 156.279 189.289,155.594 190.620,155.041 191.378 C 154.232 192.487,154.237 192.956,155.065 193.778 C 155.903 194.609,155.993 194.533,155.550 193.370 C 155.217 192.495,155.541 191.349,156.385 190.416 C 157.144 189.578,157.610 188.431,157.422 187.867 C 157.207 187.221,156.889 187.427,156.563 188.421 M202.000 192.000 C 202.683 193.320,203.421 194.400,203.641 194.400 C 203.861 194.400,203.483 193.320,202.800 192.000 C 202.117 190.680,201.379 189.600,201.159 189.600 C 200.939 189.600,201.317 190.680,202.000 192.000 M191.611 200.293 C 190.072 201.418,190.942 205.652,192.970 206.905 C 193.389 207.164,193.120 206.193,192.372 204.746 C 190.953 202.001,192.465 199.204,194.641 200.549 C 195.099 200.832,195.200 200.648,194.876 200.124 C 194.134 198.922,193.436 198.959,191.611 200.293 M208.000 203.200 C 208.898 204.960,209.813 206.400,210.033 206.400 C 210.253 206.400,209.698 204.960,208.800 203.200 C 207.902 201.440,206.987 200.000,206.767 200.000 C 206.547 200.000,207.102 201.440,208.000 203.200 M150.200 202.058 C 147.209 203.680,147.391 204.356,150.400 202.800 C 151.720 202.117,152.800 201.388,152.800 201.179 C 152.800 200.665,152.714 200.694,150.200 202.058 M196.800 204.800 C 197.698 206.560,198.613 208.000,198.833 208.000 C 199.053 208.000,198.498 206.560,197.600 204.800 C 196.702 203.040,195.787 201.600,195.567 201.600 C 195.347 201.600,195.902 203.040,196.800 204.800 M244.806 204.407 C 245.665 205.443,245.584 205.853,244.319 206.869 C 242.879 208.025,242.893 208.043,244.600 207.216 C 246.710 206.194,246.958 204.385,245.087 203.667 C 243.978 203.242,243.935 203.357,244.806 204.407 M140.600 207.254 C 138.950 208.126,137.600 209.017,137.600 209.235 C 137.600 209.454,139.040 208.898,140.800 208.000 C 142.560 207.102,144.000 206.195,144.000 205.984 C 144.000 205.460,143.994 205.463,140.600 207.254 M235.800 207.658 C 232.809 209.280,232.991 209.956,236.000 208.400 C 237.320 207.717,238.400 206.988,238.400 206.779 C 238.400 206.265,238.314 206.294,235.800 207.658 M179.724 210.263 C 176.330 214.013,183.059 224.705,186.838 221.568 C 188.336 220.325,188.316 218.311,186.787 216.353 C 185.658 214.907,185.637 214.948,186.492 216.949 C 187.641 219.638,186.943 221.600,184.839 221.600 C 182.295 221.600,178.711 214.008,180.063 211.483 C 181.390 209.003,182.104 209.107,183.600 212.000 C 185.332 215.350,185.867 215.015,184.239 211.600 C 182.737 208.451,181.654 208.130,179.724 210.263 M147.553 211.644 C 146.073 212.830,146.087 212.846,147.869 211.979 C 150.440 210.728,150.494 210.986,148.743 216.173 C 146.513 222.778,145.474 231.248,145.754 240.529 C 146.106 252.156,146.739 249.890,146.864 236.555 C 146.957 226.776,147.265 224.227,149.086 218.188 C 151.721 209.448,151.496 208.485,147.553 211.644 M235.000 211.658 C 232.009 213.280,232.191 213.956,235.200 212.400 C 236.520 211.717,237.600 210.988,237.600 210.779 C 237.600 210.265,237.514 210.294,235.000 211.658 M248.600 214.853 C 246.510 215.941,244.800 217.010,244.800 217.229 C 244.800 217.448,246.628 216.700,248.863 215.568 C 252.876 213.535,252.931 213.529,253.356 215.155 C 253.593 216.060,254.047 216.800,254.365 216.800 C 255.064 216.800,256.438 219.596,258.883 226.000 C 259.892 228.640,260.735 230.406,260.758 229.925 C 260.835 228.307,257.679 219.959,256.163 217.769 C 255.336 216.576,254.433 214.970,254.155 214.200 C 253.514 212.422,253.197 212.460,248.600 214.853 M239.000 220.054 C 237.350 220.926,236.000 221.817,236.000 222.035 C 236.000 222.254,237.440 221.698,239.200 220.800 C 240.960 219.902,242.400 218.995,242.400 218.784 C 242.400 218.260,242.394 218.263,239.000 220.054 M203.801 219.822 C 202.559 220.084,202.536 220.251,203.601 221.316 C 204.261 221.975,204.800 223.359,204.800 224.392 C 204.800 228.467,207.905 230.686,209.133 227.487 C 209.564 226.364,209.451 226.328,208.357 227.235 C 206.791 228.536,205.621 227.148,205.630 224.000 L 205.636 222.000 207.266 224.000 L 208.896 226.000 207.677 223.600 C 205.853 220.008,205.332 219.500,203.801 219.822 M241.400 221.351 C 239.918 221.739,239.502 223.598,240.728 224.355 C 241.836 225.040,243.949 223.990,244.850 222.306 C 245.692 220.733,244.757 220.474,241.400 221.351 M128.944 226.912 C 128.776 233.557,130.421 243.030,133.121 250.968 C 135.481 257.906,137.521 261.896,137.568 259.663 C 137.586 258.818,137.084 257.556,136.453 256.859 C 133.916 254.056,130.078 236.974,129.339 225.200 C 129.145 222.102,129.056 222.489,128.944 226.912 M186.384 224.419 C 185.827 225.090,185.602 225.868,185.883 226.149 C 186.576 226.843,190.400 225.038,190.400 224.017 C 190.400 222.761,187.521 223.049,186.384 224.419 M170.031 228.145 C 167.869 235.425,168.318 236.934,172.000 234.765 L 174.000 233.587 171.745 234.094 C 169.345 234.634,169.185 231.152,171.411 226.856 C 172.277 225.184,171.983 224.983,175.030 229.331 C 175.596 230.139,175.260 229.270,174.282 227.400 C 172.001 223.035,171.524 223.119,170.031 228.145 M231.263 224.673 C 231.228 225.263,232.470 227.230,234.023 229.044 C 242.748 239.237,245.875 257.113,240.900 268.360 C 239.954 270.498,239.344 272.411,239.543 272.610 C 239.743 272.810,240.485 271.588,241.192 269.896 C 246.660 256.808,243.931 239.087,234.888 228.971 C 233.427 227.337,232.028 225.460,231.779 224.800 C 231.452 223.933,231.309 223.898,231.263 224.673 M210.900 231.770 C 211.725 232.634,212.869 234.029,213.442 234.870 C 214.015 235.712,213.832 235.169,213.035 233.664 C 212.238 232.160,211.094 230.765,210.493 230.564 C 209.840 230.347,210.004 230.832,210.900 231.770 M261.410 235.600 C 264.299 260.541,253.593 282.994,234.176 292.716 C 231.192 294.209,228.580 295.709,228.370 296.048 C 228.043 296.578,232.968 325.420,233.963 328.800 C 234.870 331.881,233.187 319.949,231.146 308.829 C 229.897 302.025,228.948 296.409,229.038 296.349 C 229.127 296.288,231.366 295.100,234.014 293.707 C 247.816 286.448,257.040 274.756,261.275 259.154 C 262.864 253.301,263.128 237.238,261.702 233.200 C 261.016 231.260,260.960 231.720,261.410 235.600 M215.263 239.893 C 215.211 241.464,214.864 241.722,213.224 241.409 C 212.138 241.201,211.439 241.339,211.671 241.716 C 213.032 243.918,216.723 241.477,215.739 239.026 C 215.512 238.462,215.298 238.852,215.263 239.893 M176.600 241.325 C 177.613 241.542,178.400 242.309,178.400 243.077 C 178.400 244.560,172.192 249.013,171.081 248.326 C 170.057 247.693,170.263 244.458,171.400 243.313 C 172.202 242.505,172.134 242.406,171.062 242.814 C 168.719 243.706,168.703 249.600,171.043 249.600 C 175.764 249.600,181.321 241.365,176.800 241.069 C 175.038 240.953,175.014 240.984,176.600 241.325 M215.400 243.774 C 213.884 244.319,214.203 246.773,216.000 248.400 C 218.044 250.250,218.012 250.979,215.800 252.936 L 214.000 254.528 215.978 253.264 C 218.793 251.465,218.952 251.576,219.614 255.800 C 219.942 257.890,220.370 259.158,220.566 258.618 C 221.055 257.266,219.235 248.800,218.454 248.800 C 218.106 248.800,217.981 247.968,218.175 246.951 C 218.557 244.955,217.018 243.193,215.400 243.774 M217.600 246.447 C 217.600 248.116,216.423 248.532,215.576 247.162 C 214.851 245.988,215.817 243.793,216.794 244.397 C 217.237 244.670,217.600 245.593,217.600 246.447 M183.632 250.349 C 183.333 250.832,183.592 250.999,184.250 250.747 C 185.025 250.450,185.538 251.088,185.874 252.769 C 186.833 257.565,190.644 264.202,195.290 269.168 C 202.219 276.576,201.172 278.209,192.582 273.390 C 183.059 268.049,173.234 257.969,175.219 255.577 C 176.060 254.564,176.009 254.447,174.913 254.867 C 172.970 255.613,173.284 256.772,176.622 261.180 C 182.354 268.747,197.229 278.768,199.693 276.723 C 201.432 275.280,201.089 274.526,196.384 269.444 C 191.728 264.415,189.441 260.572,187.226 254.056 C 185.880 250.096,184.602 248.778,183.632 250.349 M212.042 255.549 C 211.291 256.454,211.754 260.076,214.216 272.549 C 217.760 290.509,217.963 289.582,210.208 290.866 C 205.905 291.578,205.189 291.850,207.446 291.914 C 210.662 292.005,217.401 290.569,217.954 289.675 C 218.257 289.184,216.181 277.661,213.142 262.970 C 212.125 258.056,212.058 256.494,212.824 255.570 C 213.359 254.927,213.616 254.400,213.396 254.400 C 213.176 254.400,212.567 254.917,212.042 255.549 M147.332 256.538 C 149.158 257.022,149.830 259.132,148.658 260.701 C 147.775 261.883,147.817 261.882,149.122 260.693 C 150.850 259.119,149.641 255.939,147.372 256.093 C 146.127 256.177,146.124 256.218,147.332 256.538 M220.928 261.200 C 220.942 262.080,221.443 264.600,222.042 266.800 L 223.130 270.800 222.700 266.894 C 222.223 262.557,220.879 258.241,220.928 261.200 M152.487 267.750 C 153.414 267.932,154.668 269.006,155.272 270.135 C 160.963 280.768,180.986 291.219,197.779 292.321 L 204.400 292.756 196.721 291.647 C 178.702 289.046,165.669 282.381,157.533 271.605 C 155.202 268.516,153.699 267.233,152.504 267.309 L 150.800 267.418 152.487 267.750 M143.279 269.905 C 141.593 271.936,152.689 284.316,161.349 290.064 C 168.932 295.097,182.115 300.124,187.197 299.920 C 188.299 299.875,187.030 299.363,184.378 298.780 C 169.374 295.483,156.312 287.413,147.064 275.728 C 143.691 271.466,143.284 269.905,145.400 269.351 C 146.581 269.043,146.596 268.971,145.498 268.893 C 144.782 268.842,143.783 269.297,143.279 269.905 M223.272 272.177 C 223.080 275.842,225.890 285.600,227.137 285.600 C 228.850 285.600,236.024 279.233,237.840 276.101 C 238.769 274.499,237.339 275.602,233.809 279.209 C 227.188 285.977,226.759 286.028,225.593 280.200 C 224.328 273.881,223.358 270.529,223.272 272.177 M214.000 299.268 C 212.077 299.811,212.353 299.875,215.389 299.590 C 218.806 299.269,219.212 299.409,219.528 301.017 C 219.721 301.998,220.250 304.420,220.703 306.400 L 221.528 310.000 221.106 306.000 C 220.253 297.900,219.928 297.592,214.000 299.268 M194.565 300.592 C 197.516 300.746,202.556 300.747,205.765 300.595 C 208.974 300.442,206.560 300.317,200.400 300.316 C 194.240 300.314,191.614 300.439,194.565 300.592 M222.089 314.800 C 222.323 317.440,222.836 320.860,223.227 322.400 C 223.785 324.596,223.846 324.165,223.511 320.400 C 223.277 317.760,222.764 314.340,222.373 312.800 C 221.815 310.604,221.754 311.035,222.089 314.800 M224.070 326.400 C 224.019 327.060,224.587 332.597,225.333 338.704 C 227.828 359.130,223.440 369.830,210.000 376.091 C 207.360 377.320,205.662 378.343,206.227 378.363 C 208.028 378.428,215.153 374.438,218.278 371.615 C 225.637 364.967,227.954 356.180,226.423 340.723 C 225.457 330.974,224.275 323.774,224.070 326.400 M171.675 332.008 C 166.158 334.162,160.953 339.353,159.649 344.000 C 159.340 345.100,160.203 344.105,161.566 341.789 C 169.961 327.527,189.408 328.102,196.755 342.830 C 197.625 344.573,198.351 345.432,198.368 344.737 C 198.594 335.773,182.134 327.923,171.675 332.008 M234.946 336.400 C 235.193 339.920,235.531 342.950,235.697 343.133 C 236.273 343.767,235.905 336.389,235.202 333.200 C 234.684 330.850,234.616 331.699,234.946 336.400 M236.248 348.400 C 236.252 351.040,236.402 352.024,236.580 350.586 C 236.758 349.148,236.754 346.988,236.572 345.786 C 236.389 344.584,236.243 345.760,236.248 348.400 M158.113 348.168 C 157.843 349.176,157.659 351.260,157.704 352.800 C 157.771 355.068,157.923 354.778,158.505 351.278 C 159.240 346.850,158.992 344.885,158.113 348.168 M198.400 350.643 C 198.400 358.855,192.624 366.550,184.671 368.933 C 174.424 372.003,191.717 381.843,202.800 379.249 C 204.348 378.887,202.928 378.700,198.800 378.724 C 191.604 378.766,185.768 376.622,183.450 373.084 C 181.971 370.827,181.802 371.046,186.400 369.268 C 193.784 366.414,198.444 359.977,199.027 351.827 C 199.240 348.842,199.187 346.400,198.907 346.400 C 198.628 346.400,198.400 348.309,198.400 350.643 M234.725 358.800 C 232.969 370.037,226.088 379.609,216.620 383.986 C 195.653 393.679,164.930 382.437,158.719 362.800 C 158.100 360.843,157.686 360.261,157.654 361.302 C 157.203 375.648,184.747 390.949,205.696 387.990 C 222.552 385.609,237.214 369.965,235.852 355.817 C 235.665 353.878,235.373 354.651,234.725 358.800 " stroke="none" fill="#bbbbbb" fill-rule="evenodd"></path><path id="path3" d="M321.516 73.684 C 320.061 75.139,319.914 76.185,320.089 83.853 C 320.516 102.540,313.392 108.883,252.800 143.773 C 245.980 147.700,235.301 153.858,229.069 157.457 C 222.837 161.055,217.380 164.000,216.941 164.000 C 216.502 164.000,213.602 165.440,210.496 167.200 C 207.390 168.960,204.452 170.400,203.967 170.400 C 203.482 170.400,202.520 170.966,201.828 171.658 C 200.991 172.495,199.872 172.745,198.485 172.405 C 196.465 171.910,196.450 171.934,198.000 173.147 C 199.550 174.360,199.553 174.436,198.122 175.545 C 196.226 177.014,195.130 176.553,193.425 173.566 C 192.300 171.596,191.689 171.247,190.072 171.653 C 186.772 172.482,182.068 166.729,184.071 164.315 C 185.695 162.357,183.881 161.545,181.000 162.940 C 178.148 164.322,177.257 167.349,179.906 166.656 C 181.901 166.135,184.000 169.171,184.000 172.578 C 184.000 174.020,183.679 175.200,183.286 175.200 C 181.883 175.200,181.585 177.857,182.782 179.685 C 184.324 182.037,184.318 182.907,182.756 183.506 C 181.886 183.840,181.267 183.283,180.700 181.656 C 179.754 178.945,178.094 178.079,175.995 179.203 C 173.919 180.314,173.954 180.333,172.040 177.088 C 170.866 175.099,170.476 173.476,170.808 171.964 C 171.455 169.016,170.421 168.558,167.343 170.430 C 164.481 172.170,164.030 173.600,166.342 173.600 C 169.492 173.600,172.929 179.998,170.994 182.257 C 168.943 184.650,168.680 186.542,170.170 188.188 C 171.517 189.677,171.512 189.793,170.055 190.859 C 168.528 191.975,165.934 191.002,166.782 189.630 C 167.404 188.624,163.479 187.004,161.749 187.553 C 160.460 187.962,159.667 187.425,158.054 185.051 C 155.957 181.965,155.364 179.200,156.800 179.200 C 157.240 179.200,157.600 178.660,157.600 178.000 C 157.600 176.409,155.588 176.481,152.723 178.172 C 149.867 179.860,149.708 181.600,152.410 181.600 C 155.617 181.600,158.526 188.050,156.387 190.415 C 154.912 192.045,154.911 192.140,156.382 194.870 C 157.681 197.282,157.729 197.808,156.742 198.761 C 154.927 200.513,130.305 213.772,129.802 213.268 C 129.552 213.018,128.954 213.127,128.474 213.510 C 127.638 214.175,90.935 234.159,69.332 245.710 C 62.336 249.451,58.186 251.200,56.306 251.200 C 54.788 251.200,51.707 252.132,49.459 253.271 C 46.899 254.569,44.597 255.195,43.300 254.947 C 33.856 253.141,32.937 267.619,42.154 273.002 C 45.119 274.734,49.411 273.294,50.193 270.305 C 50.417 269.449,53.042 267.169,56.026 265.238 C 59.010 263.308,61.686 260.990,61.972 260.088 C 62.277 259.127,64.876 257.175,68.246 255.376 C 71.411 253.686,81.491 248.236,90.646 243.264 C 108.864 233.371,108.329 233.541,107.087 238.040 C 101.199 259.364,122.658 279.560,141.684 270.599 C 143.618 269.688,147.659 268.400,150.664 267.736 C 153.669 267.072,157.449 265.650,159.064 264.574 C 160.679 263.499,164.520 261.251,167.600 259.579 C 170.680 257.906,173.380 256.280,173.600 255.965 C 173.820 255.650,176.483 254.101,179.519 252.522 C 184.742 249.805,186.400 249.502,186.400 251.264 C 186.400 251.688,187.372 253.503,188.560 255.298 C 189.748 257.093,190.790 259.579,190.876 260.822 C 191.202 265.525,193.395 265.968,199.590 262.581 C 204.191 260.066,204.891 258.252,202.317 255.512 C 200.622 253.708,200.585 253.472,201.805 252.252 C 203.246 250.812,205.600 251.921,205.600 254.041 C 205.600 257.896,208.804 257.881,214.218 254.000 C 218.006 251.285,218.270 250.454,216.000 248.400 C 214.153 246.728,213.900 244.363,215.503 243.748 C 216.994 243.176,218.400 244.721,218.400 246.932 C 218.400 249.985,221.130 250.770,225.088 248.854 C 231.479 245.760,233.191 242.620,229.672 240.445 C 228.624 239.797,224.000 231.412,224.000 230.159 C 224.000 228.925,229.910 225.377,230.682 226.149 C 230.967 226.434,231.202 226.157,231.204 225.533 C 231.207 224.407,252.034 212.565,253.328 212.954 C 253.698 213.065,255.008 212.482,256.241 211.659 C 258.740 209.990,261.063 210.953,259.396 212.966 C 258.734 213.766,259.062 214.038,260.848 214.166 C 262.331 214.273,263.529 213.800,264.198 212.845 C 264.771 212.028,266.094 211.233,267.138 211.079 C 269.609 210.716,271.258 208.240,269.683 207.258 C 267.695 206.018,269.272 204.459,275.699 201.307 C 279.164 199.608,283.146 197.359,284.547 196.309 C 287.506 194.090,288.453 193.943,289.089 195.600 C 290.308 198.776,297.581 193.330,297.612 189.218 C 297.637 185.975,305.576 179.243,307.145 181.134 C 310.724 185.446,317.200 174.926,317.200 164.800 C 317.200 155.440,316.059 153.077,314.883 160.000 C 313.480 168.262,311.428 167.776,308.609 158.516 C 307.143 153.699,305.143 149.452,302.472 145.485 C 297.903 138.697,297.698 139.217,306.000 136.518 C 327.663 129.475,335.944 129.478,344.604 136.532 C 352.381 142.866,356.323 143.998,357.385 140.200 C 362.613 121.506,331.462 63.738,321.516 73.684 M294.442 147.400 C 302.938 157.961,304.774 169.130,299.080 175.614 L 296.639 178.394 294.396 176.797 C 291.503 174.737,289.656 174.652,291.476 176.663 C 294.814 180.352,290.484 182.948,286.272 179.783 C 284.802 178.679,282.502 177.543,281.161 177.259 C 279.016 176.806,278.074 175.547,273.361 166.834 C 265.818 152.892,265.721 153.309,277.800 147.793 C 290.108 142.173,290.235 142.170,294.442 147.400 M264.171 156.600 C 265.728 158.388,275.200 176.266,275.200 177.416 C 275.200 177.893,274.210 178.789,273.000 179.408 C 271.790 180.027,267.753 182.232,264.028 184.308 C 257.017 188.216,251.789 188.867,250.678 185.971 C 250.452 185.382,249.737 185.105,249.088 185.354 C 248.439 185.603,248.090 186.282,248.313 186.862 C 249.213 189.206,246.263 192.846,241.529 195.236 C 238.928 196.549,236.800 198.116,236.800 198.718 C 236.800 199.937,214.833 212.278,213.471 211.824 C 212.560 211.520,199.263 187.394,199.223 185.972 C 199.198 185.069,203.502 182.276,204.551 182.515 C 204.908 182.596,211.680 179.494,219.600 175.622 C 267.131 152.382,262.295 154.445,264.171 156.600 M193.656 168.953 C 193.625 170.137,193.960 171.328,194.400 171.600 C 195.355 172.190,195.355 170.623,194.400 168.400 C 193.786 166.971,193.706 167.031,193.656 168.953 M313.985 170.377 C 314.586 171.348,312.244 176.000,311.154 176.000 C 309.808 176.000,309.337 173.613,310.278 171.549 C 311.179 169.572,313.110 168.961,313.985 170.377 M279.567 186.347 C 280.022 187.083,272.840 191.308,255.600 200.445 C 250.760 203.010,246.440 205.533,246.000 206.051 C 242.511 210.162,217.600 221.041,217.600 218.453 C 217.600 217.703,242.279 204.006,244.182 203.700 C 244.742 203.611,248.343 201.816,252.184 199.713 C 257.335 196.892,277.496 186.314,278.953 185.668 C 279.037 185.630,279.313 185.936,279.567 186.347 M295.200 190.000 C 295.200 190.782,294.434 191.191,293.000 191.175 C 290.893 191.150,290.865 191.100,292.353 189.975 C 294.332 188.478,295.200 188.486,295.200 190.000 M191.251 194.499 C 192.176 196.314,193.894 199.127,195.067 200.750 C 198.207 205.096,201.091 211.688,200.512 213.196 C 199.394 216.109,196.752 214.106,193.657 208.000 C 186.599 194.080,186.054 192.709,187.265 191.943 C 189.097 190.783,189.480 191.028,191.251 194.499 M178.783 203.748 C 180.112 206.469,181.560 208.722,182.000 208.754 C 183.657 208.877,188.412 219.167,187.488 220.632 C 185.608 223.613,182.949 222.309,180.490 217.200 C 179.220 214.560,176.767 209.613,175.039 206.206 C 171.798 199.816,171.714 198.131,174.658 198.554 C 175.855 198.726,177.090 200.281,178.783 203.748 M166.543 214.410 C 169.047 219.024,171.687 223.520,172.410 224.400 C 174.640 227.117,176.965 232.160,176.265 232.764 C 175.899 233.080,173.620 234.162,171.200 235.169 C 168.780 236.176,162.917 239.114,158.170 241.700 C 153.424 244.285,149.284 246.415,148.970 246.432 C 145.006 246.658,137.614 255.723,137.453 260.556 C 137.132 270.215,121.778 264.389,116.365 252.553 C 111.085 241.010,114.544 230.075,125.200 224.622 C 126.960 223.722,128.586 222.698,128.814 222.347 C 129.695 220.988,149.877 210.335,150.858 210.712 C 151.429 210.931,152.010 210.849,152.148 210.531 C 152.625 209.434,159.602 205.641,160.794 205.830 C 161.451 205.935,164.038 209.795,166.543 214.410 M206.499 221.413 C 209.469 226.931,209.681 228.804,207.333 228.795 C 205.799 228.788,202.400 224.178,202.400 222.103 C 202.400 221.335,202.042 220.927,201.603 221.198 C 199.964 222.211,198.712 217.535,200.309 216.367 C 202.459 214.796,203.313 215.492,206.499 221.413 M190.400 224.017 C 190.400 225.038,186.576 226.843,185.883 226.149 C 185.602 225.868,185.827 225.090,186.384 224.419 C 187.521 223.049,190.400 222.761,190.400 224.017 M213.937 235.309 C 216.431 240.028,216.331 242.400,213.637 242.400 C 211.049 242.400,206.751 233.363,208.504 231.610 C 210.380 229.734,211.334 230.384,213.937 235.309 M195.048 233.812 C 195.405 235.649,192.443 237.098,191.256 235.668 C 190.559 234.828,190.655 234.259,191.665 233.249 C 193.193 231.721,194.691 231.971,195.048 233.812 M179.038 242.865 C 179.292 244.641,174.008 248.978,171.353 249.174 C 170.601 249.229,167.289 250.763,163.993 252.581 C 160.697 254.400,156.380 256.626,154.400 257.528 C 152.420 258.430,149.882 259.912,148.760 260.821 C 146.295 262.818,144.000 262.202,144.000 259.543 C 144.000 257.600,146.507 255.635,148.244 256.216 C 148.770 256.392,151.180 255.199,153.600 253.566 C 156.020 251.932,160.610 249.257,163.800 247.621 C 166.990 245.985,169.600 244.360,169.600 244.009 C 169.600 241.420,178.674 240.320,179.038 242.865 M201.286 245.259 C 201.882 247.634,200.683 249.233,198.836 248.524 C 196.047 247.454,196.306 243.200,199.160 243.200 C 200.222 243.200,200.945 243.900,201.286 245.259 " stroke="none" fill="#fed700" fill-rule="evenodd"></path></g></svg>