<?xml version="1.0" standalone="no"?>
<!DOCTYPE svg PUBLIC "-//W3C//DTD SVG 20010904//EN"
 "http://www.w3.org/TR/2001/REC-SVG-20010904/DTD/svg10.dtd">
<svg version="1.0" xmlns="http://www.w3.org/2000/svg"
 width="626.000000pt" height="626.000000pt" viewBox="0 0 626.000000 626.000000"
 preserveAspectRatio="xMidYMid meet">

<g transform="translate(0.000000,626.000000) scale(0.100000,-0.100000)"
fill="#000000" stroke="none">
<path d="M1614 4638 c-831 -832 -1520 -1526 -1531 -1543 -11 -16 -33 -61 -48
-100 -39 -95 -42 -236 -7 -335 109 -316 484 -447 759 -265 28 19 474 456 991
972 517 516 1032 1030 1146 1143 l206 204 1148 -1145 c634 -633 1169 -1160
1197 -1178 27 -17 87 -43 133 -58 71 -22 95 -25 165 -20 212 14 379 137 453
334 48 128 42 253 -18 387 -31 70 -61 101 -1552 1594 -836 837 -1523 1522
-1526 1522 -3 0 -685 -681 -1516 -1512z"/>
<path d="M1619 2443 c-828 -830 -1518 -1527 -1533 -1550 -41 -62 -76 -165 -82
-247 -12 -139 45 -287 151 -393 151 -151 372 -190 570 -101 68 31 102 63 1238
1197 l1167 1166 1143 -1142 c628 -628 1156 -1152 1172 -1166 93 -76 243 -114
378 -97 251 31 453 280 434 535 -6 79 -41 186 -83 248 -25 38 -3031 3057
-3044 3057 -3 0 -683 -678 -1511 -1507z"/>
</g>
</svg>
